<svg width="284" height="164" fill="none" xmlns="http://www.w3.org/2000/svg"><g filter="url(#filter0_d_159_12)"><path d="M253.543 95.403c1.559-4.44 2.442-9.079 2.442-13.876 0-30.054-31.899-54.358-71.228-54.358-10.13 0-19.742 1.625-28.418 4.52-8.728-15.463-28.886-26.287-52.317-26.287-31.483 0-56.992 19.467-56.992 43.494 0 1.626.415 3.132.623 4.718C24.846 61.663 9 79.187 9 99.646c0 28.031 29.77 50.75 66.5 50.75h161.522c20.989 0 37.978-12.965 37.978-28.983 0-11.498-8.78-21.291-21.457-26.01z" fill="url(#paint0_linear_159_12)"/></g><defs><linearGradient id="paint0_linear_159_12" x1="142" y1="5.402" x2="142" y2="150.396" gradientUnits="userSpaceOnUse"><stop stop-color="#44454C"/><stop offset="1" stop-color="#8F8F8F"/></linearGradient><filter id="filter0_d_159_12" x="0" y=".402" width="284" height="162.994" filterUnits="userSpaceOnUse" color-interpolation-filters="sRGB"><feFlood flood-opacity="0" result="BackgroundImageFix"/><feColorMatrix in="SourceAlpha" values="0 0 0 0 0 0 0 0 0 0 0 0 0 0 0 0 0 0 127 0" result="hardAlpha"/><feOffset dy="4"/><feGaussianBlur stdDeviation="4.5"/><feComposite in2="hardAlpha" operator="out"/><feColorMatrix values="0 0 0 0 0 0 0 0 0 0 0 0 0 0 0 0 0 0 0.5 0"/><feBlend in2="BackgroundImageFix" result="effect1_dropShadow_159_12"/><feBlend in="SourceGraphic" in2="effect1_dropShadow_159_12" result="shape"/></filter></defs></svg>